<?xml version="1.0" encoding="UTF-8"?><svg id="Layer_2" xmlns="http://www.w3.org/2000/svg" xmlns:xlink="http://www.w3.org/1999/xlink" viewBox="0 0 91.43 91.43"><defs><style>.cls-1{fill:none;}.cls-2{clip-path:url(#clippath);}.cls-3{opacity:.1;}.cls-4{fill:#e9952e;}.cls-5{fill:#fee69f;}.cls-6{fill:#7f4403;}.cls-7{fill:#6ba2b8;}.cls-8{fill:#346178;}.cls-9{fill:#fff;opacity:.4;}</style><clipPath id="clippath"><path class="cls-1" d="m91.43,45.71c0,25.25-20.47,45.71-45.71,45.71S0,70.96,0,45.71,20.47,0,45.71,0s45.71,20.47,45.71,45.71Z"/></clipPath></defs><g id="Layer_1-2"><g class="cls-2"><path class="cls-4" d="m91.43,45.71c0,25.25-20.47,45.71-45.71,45.71S0,70.96,0,45.71,20.47,0,45.71,0s45.71,20.47,45.71,45.71Z"/><path class="cls-6" d="m70.27,53.67c-5.39-6.14-2.74-29.83-10.39-35.49-7.62-5.64-20.72-5.64-28.34,0-7.65,5.66-5,29.34-10.39,35.49-5.43,6.19-.27,19.16-.27,19.16h49.65s5.16-12.97-.27-19.16Z"/><path class="cls-5" d="m67.23,67.94c-.41-.08-.8-.16-1.19-.23-1.55-.28-3.08-.52-4.48-.7-1.8-.24-3.37-.4-4.49-.5.53.05.02,0-.59-.05-.63-.05-1.19-.6-1.24-1.23l-1.57-17.88h-15.9l-1.57,17.88c-.06.63-.49,1.17-.97,1.2-.24.02-.54.05-.87.08-1.12.1-2.7.26-4.49.5-1.4.18-2.93.42-4.48.7-.39.07-.78.15-1.17.23-4.41.89-8.68,2.21-10.18,4.14-2.96,3.83,0,19.35,0,19.35h63.35s2.96-15.53,0-19.35c-1.5-1.93-5.77-3.26-10.16-4.14Z"/><path class="cls-5" d="m63.06,39.44c-1.31-.8-3.22.74-4.28,3.45-1.06,2.7-.86,5.54.45,6.35,1.3.8,3.22-.74,4.28-3.45,1.06-2.7.86-5.54-.45-6.35Z"/><path class="cls-5" d="m28.37,39.44c1.3-.8,3.22.74,4.27,3.45,1.06,2.7.86,5.54-.45,6.35-1.3.8-3.22-.74-4.28-3.45-1.06-2.7-.86-5.54.45-6.35Z"/><path class="cls-3" d="m45.71,61.28c-3.21,0-6.22-1.53-8.82-4.02l-.09,1.04c2.62,2.55,5.66,4.12,8.91,4.12s6.3-1.56,8.91-4.11l-.09-1.06c-2.6,2.49-5.61,4.02-8.82,4.02Z"/><path class="cls-8" d="m61.51,50.53c0,1.98-1.02,3.58-2.29,3.58s-2.29-1.61-2.29-3.58,1.02-3.59,2.29-3.59,2.29,1.61,2.29,3.59Z"/><path class="cls-8" d="m34.48,50.53c0,1.98-1.02,3.58-2.29,3.58s-2.29-1.61-2.29-3.58,1.02-3.59,2.29-3.59,2.29,1.61,2.29,3.59Z"/><path class="cls-6" d="m45.71,15.92c-9.79,0-17.72,6.16-17.72,18.69,0,1.53.12,3.08.34,4.62h.14s0-3.5,3.72-4.71c3.98-1.3,6.93-4.37,9.05-7.69h0s4.63,6.23,13.79,5.01c4.74-.63,7.91,7.39,7.91,7.39h.14c.22-1.54.34-3.09.34-4.62,0-12.52-7.93-18.69-17.72-18.69Z"/><path class="cls-5" d="m62.95,39.23s-3.17-8.02-7.91-7.39c-9.16,1.21-13.79-5.01-13.79-5.01h0c-2.12,3.32-5.07,6.39-9.05,7.69-3.72,1.21-3.72,4.71-3.72,4.71h-.14c1.62,11.14,8.78,22.05,17.37,22.05s15.76-10.91,17.37-22.05h-.14Z"/><path class="cls-9" d="m45.71,30.34c-2.97-1.51-4.46-3.52-4.46-3.52h0c-2.12,3.32-5.07,6.39-9.05,7.69-3.72,1.21-3.72,4.71-3.72,4.71h-.14c1.62,11.14,8.78,22.05,17.37,22.05h0v-30.93Z"/><path class="cls-7" d="m77.39,72.08c-1.5-1.93-5.77-3.26-10.16-4.14-.41-.08-.8-.16-1.19-.23-1.44-.26-2.85-.48-4.17-.65h-.37s-.14.13-.31.28c-.23.19-.57.51-1.01.82-.87.65-2.1,1.45-3.59,2.16-1.49.71-3.22,1.34-5.08,1.76-1.86.43-3.84.63-5.82.64-1.98,0-3.96-.22-5.82-.65-1.86-.42-3.59-1.06-5.08-1.77-1.49-.71-2.72-1.51-3.59-2.15-.43-.31-.77-.63-1.01-.81-.17-.15-.26-.24-.31-.28h-.37c-1.32.18-2.73.39-4.16.65-.39.07-.78.15-1.17.23-4.41.89-8.68,2.21-10.18,4.14-2.96,3.83,0,19.35,0,19.35h63.35s2.96-15.53,0-19.35Z"/></g></g></svg>