<?xml version="1.0" encoding="utf-8"?>
<!-- Svg Vector Icons : http://www.onlinewebfonts.com/icon -->
<!DOCTYPE svg PUBLIC "-//W3C//DTD SVG 1.1//EN" "http://www.w3.org/Graphics/SVG/1.1/DTD/svg11.dtd">
<svg version="1.1" xmlns="http://www.w3.org/2000/svg" xmlns:xlink="http://www.w3.org/1999/xlink" x="0px" y="0px" viewBox="0 0 256 256" enable-background="new 0 0 256 256" xml:space="preserve">
<metadata> Svg Vector Icons : http://www.onlinewebfonts.com/icon </metadata>
<g><g><g><path fill="#000000" d="M119.3,10.5c-2.1,0.2-6.2,1-9,1.8c-42.1,10.6-65.8,54.2-52,95.4c8.2,24.5,28.4,43.3,53.1,49.3l1.9,0.5v14.7V187H98.5H83.7v14.8v14.8h14.8h14.8v14.8V246H128h14.8v-14.8v-14.8h14.8h14.8v-14.8V187h-14.8h-14.8v-14.8v-14.7l2-0.5c8-2,17.1-6,23.9-10.7c22.6-15.5,35.5-42.9,32.7-69.8C197.1,35.3,160.6,5.9,119.3,10.5z M135.5,40.1c9.2,1.6,16.9,5.6,23.7,12.4c12.4,12.5,16.3,30,10.3,46.5c-4.2,11.6-14.6,21.9-26.1,26.1c-10.1,3.6-20.6,3.6-30.7,0C101.1,121,90.7,110.6,86.5,99c-6-16.6-2.1-34.1,10.3-46.5C107.3,42.2,121.3,37.6,135.5,40.1z"/></g></g></g>
</svg>