<?xml version="1.0" encoding="utf-8"?>
<!-- Svg Vector Icons : http://www.onlinewebfonts.com/icon -->
<!DOCTYPE svg PUBLIC "-//W3C//DTD SVG 1.1//EN" "http://www.w3.org/Graphics/SVG/1.1/DTD/svg11.dtd">
<svg version="1.1" xmlns="http://www.w3.org/2000/svg" xmlns:xlink="http://www.w3.org/1999/xlink" x="0px" y="0px" viewBox="0 0 256 256" enable-background="new 0 0 256 256" xml:space="preserve">
<metadata> Svg Vector Icons : http://www.onlinewebfonts.com/icon </metadata>
<g><g><g><path fill="#000000" d="M159.8,25L144.9,40h24.8h24.8L171,63.3l-23.3,23.3l-3.8-2.4c-8.2-5.3-19.8-9.8-30.6-11.8c-8.1-1.6-24-1.6-31.6,0c-12.2,2.4-23.2,6.9-33.4,13.8c-7,4.7-18,15.6-22.9,22.9c-23.7,35-19.5,81.3,10.1,111c16.8,16.9,38.1,25.8,61.9,25.8c20.7,0.1,39.4-6.4,55.2-19.2c33.8-27.1,42.5-75.9,20.3-112.8l-3.3-5.4l23.3-23.3l23.3-23.3v24.8v24.8l14.9-14.9L246,81.4V45.8V10.1h-35.7h-35.6L159.8,25z M113.1,103.4c19.7,5.8,34.7,21.2,39.9,40.6c1.6,6,2.1,16.9,1.2,23c-1.7,10.9-7.2,22.2-14.6,30.2c-5.5,5.8-10.3,9.4-17.4,12.8c-18.8,9-40,7.3-57.3-4.4c-10-6.8-18.1-18-22-30c-2.9-9-3.5-17.4-1.9-26.3c2.3-12.8,6.9-21.7,16.1-31c8.5-8.5,17.2-13.4,28.3-15.8C93.1,100.9,105.9,101.3,113.1,103.4z"/></g></g></g>
</svg>