<?xml version="1.0" encoding="utf-8"?>
<!-- Svg Vector Icons : http://www.onlinewebfonts.com/icon -->
<!DOCTYPE svg PUBLIC "-//W3C//DTD SVG 1.1//EN" "http://www.w3.org/Graphics/SVG/1.1/DTD/svg11.dtd">
<svg version="1.1" xmlns="http://www.w3.org/2000/svg" xmlns:xlink="http://www.w3.org/1999/xlink" x="0px" y="0px" viewBox="0 0 256 256" enable-background="new 0 0 256 256" xml:space="preserve">
<metadata> Svg Vector Icons : http://www.onlinewebfonts.com/icon </metadata>
<g><g><g><path fill="#000000" d="M10,128v92.6h118h118v-79.3V62.1h-17.4l-17.4,0l-10.1-13.3l-10.1-13.3l-90.4,0H10V128z M127.1,46c1.7,2.2,5.1,6.5,7.5,9.8l4.5,5.9H77.8H16.5v-9.9v-9.9l53.8,0.1L124,42L127.1,46z M194.8,51.1c3.9,5.1,7.3,9.6,7.5,9.9c0.3,0.6-4.1,0.6-27.4,0.6h-27.8l-7.1-9.3c-3.9-5.1-7.3-9.5-7.5-9.9c-0.3-0.5,4.5-0.6,27.4-0.6h27.8L194.8,51.1z M239.5,141.4v72.8H128H16.5v-72.8V68.5H128h111.5V141.4z"/><path fill="#000000" d="M50.7,110.6c-0.1,0.4-0.2,2.2-0.1,4.1l0.1,3.4h40.1H131l0.1-4.1l0.1-4H91.1C57.9,110,50.9,110.1,50.7,110.6z"/><path fill="#000000" d="M50.6,139.8v3.9H110h59.5v-3.9v-3.9H110H50.6V139.8z"/></g></g></g>
</svg>